<mxfile host="Electron" modified="2023-12-03T05:53:33.689Z" agent="Mozilla/5.0 (X11; Linux x86_64) AppleWebKit/537.36 (KHTML, like Gecko) draw.io/22.1.2 Chrome/114.0.5735.289 Electron/25.9.4 Safari/537.36" etag="q0JHXwMegkN90PW85wDc" version="22.1.2" type="device">
  <diagram name="Page-1" id="RO8exJgrR67lhUGeEk_B">
    <mxGraphModel dx="1674" dy="884" grid="0" gridSize="10" guides="1" tooltips="1" connect="1" arrows="1" fold="1" page="1" pageScale="1" pageWidth="850" pageHeight="1100" math="0" shadow="0">
      <root>
        <mxCell id="0" />
        <mxCell id="1" parent="0" />
        <mxCell id="j5MjGRpIGbVyYRwS1XoK-114" value="" style="rounded=0;whiteSpace=wrap;html=1;fillColor=none;strokeWidth=4;dashed=1;" parent="1" vertex="1">
          <mxGeometry x="85" y="2489" width="639" height="224" as="geometry" />
        </mxCell>
        <mxCell id="j5MjGRpIGbVyYRwS1XoK-1" value="Producer" style="rounded=1;whiteSpace=wrap;html=1;fontSize=23;fillColor=#f8cecc;strokeColor=#b85450;" parent="1" vertex="1">
          <mxGeometry x="121" y="260" width="120" height="60" as="geometry" />
        </mxCell>
        <mxCell id="j5MjGRpIGbVyYRwS1XoK-2" value="Broker" style="rounded=1;whiteSpace=wrap;html=1;fontSize=23;fillColor=#d5e8d4;strokeColor=#82b366;" parent="1" vertex="1">
          <mxGeometry x="591" y="23" width="120" height="60" as="geometry" />
        </mxCell>
        <mxCell id="j5MjGRpIGbVyYRwS1XoK-3" value="Consumer" style="rounded=1;whiteSpace=wrap;html=1;fontSize=23;fillColor=#fff2cc;strokeColor=#d6b656;" parent="1" vertex="1">
          <mxGeometry x="561" y="260" width="120" height="60" as="geometry" />
        </mxCell>
        <mxCell id="j5MjGRpIGbVyYRwS1XoK-4" value="Broker" style="ellipse;whiteSpace=wrap;html=1;aspect=fixed;fillColor=#d5e8d4;strokeColor=#82b366;fontSize=23;" parent="1" vertex="1">
          <mxGeometry x="751" y="8" width="90" height="90" as="geometry" />
        </mxCell>
        <mxCell id="j5MjGRpIGbVyYRwS1XoK-5" value="Broker" style="shape=hexagon;perimeter=hexagonPerimeter2;whiteSpace=wrap;html=1;fixedSize=1;fontSize=23;fillColor=#006633;strokeColor=#6c8ebf;fontColor=#FFFFFF;" parent="1" vertex="1">
          <mxGeometry x="341" y="250" width="120" height="80" as="geometry" />
        </mxCell>
        <mxCell id="j5MjGRpIGbVyYRwS1XoK-6" value="" style="shape=flexArrow;endArrow=classic;html=1;rounded=0;fillColor=#dae8fc;strokeColor=#6c8ebf;" parent="1" edge="1">
          <mxGeometry width="50" height="50" relative="1" as="geometry">
            <mxPoint x="253" y="289.5" as="sourcePoint" />
            <mxPoint x="333" y="289.5" as="targetPoint" />
          </mxGeometry>
        </mxCell>
        <mxCell id="j5MjGRpIGbVyYRwS1XoK-7" value="" style="shape=flexArrow;endArrow=classic;html=1;rounded=0;fillColor=#dae8fc;strokeColor=#6c8ebf;" parent="1" edge="1">
          <mxGeometry width="50" height="50" relative="1" as="geometry">
            <mxPoint x="469" y="289.5" as="sourcePoint" />
            <mxPoint x="549" y="289.5" as="targetPoint" />
          </mxGeometry>
        </mxCell>
        <mxCell id="j5MjGRpIGbVyYRwS1XoK-9" value="Producer" style="rounded=1;whiteSpace=wrap;html=1;fontSize=23;fillColor=#f8cecc;strokeColor=#b85450;" parent="1" vertex="1">
          <mxGeometry x="130" y="536" width="120" height="60" as="geometry" />
        </mxCell>
        <mxCell id="j5MjGRpIGbVyYRwS1XoK-10" value="Consumer" style="rounded=1;whiteSpace=wrap;html=1;fontSize=23;fillColor=#fff2cc;strokeColor=#d6b656;" parent="1" vertex="1">
          <mxGeometry x="570" y="536" width="120" height="60" as="geometry" />
        </mxCell>
        <mxCell id="j5MjGRpIGbVyYRwS1XoK-11" value="Broker" style="shape=hexagon;perimeter=hexagonPerimeter2;whiteSpace=wrap;html=1;fixedSize=1;fontSize=23;fillColor=#006633;strokeColor=#6c8ebf;fontColor=#FFFFFF;" parent="1" vertex="1">
          <mxGeometry x="350" y="526" width="120" height="80" as="geometry" />
        </mxCell>
        <mxCell id="j5MjGRpIGbVyYRwS1XoK-12" value="" style="shape=flexArrow;endArrow=classic;html=1;rounded=0;fillColor=#dae8fc;strokeColor=#6c8ebf;" parent="1" edge="1">
          <mxGeometry width="50" height="50" relative="1" as="geometry">
            <mxPoint x="262" y="565.5" as="sourcePoint" />
            <mxPoint x="342" y="565.5" as="targetPoint" />
          </mxGeometry>
        </mxCell>
        <mxCell id="j5MjGRpIGbVyYRwS1XoK-13" value="" style="shape=flexArrow;endArrow=classic;html=1;rounded=0;fillColor=#dae8fc;strokeColor=#6c8ebf;" parent="1" edge="1">
          <mxGeometry width="50" height="50" relative="1" as="geometry">
            <mxPoint x="478" y="565.5" as="sourcePoint" />
            <mxPoint x="558" y="565.5" as="targetPoint" />
          </mxGeometry>
        </mxCell>
        <mxCell id="j5MjGRpIGbVyYRwS1XoK-14" value="Consumer" style="rounded=1;whiteSpace=wrap;html=1;fontSize=23;fillColor=#fff2cc;strokeColor=#d6b656;" parent="1" vertex="1">
          <mxGeometry x="570" y="456" width="120" height="60" as="geometry" />
        </mxCell>
        <mxCell id="j5MjGRpIGbVyYRwS1XoK-15" value="Consumer" style="rounded=1;whiteSpace=wrap;html=1;fontSize=23;fillColor=#fff2cc;strokeColor=#d6b656;" parent="1" vertex="1">
          <mxGeometry x="570" y="616" width="120" height="60" as="geometry" />
        </mxCell>
        <mxCell id="j5MjGRpIGbVyYRwS1XoK-16" value="Producer" style="rounded=1;whiteSpace=wrap;html=1;fontSize=23;fillColor=#f8cecc;strokeColor=#b85450;" parent="1" vertex="1">
          <mxGeometry x="130" y="456" width="120" height="60" as="geometry" />
        </mxCell>
        <mxCell id="j5MjGRpIGbVyYRwS1XoK-17" value="Producer" style="rounded=1;whiteSpace=wrap;html=1;fontSize=23;fillColor=#f8cecc;strokeColor=#b85450;" parent="1" vertex="1">
          <mxGeometry x="130" y="616" width="120" height="60" as="geometry" />
        </mxCell>
        <mxCell id="j5MjGRpIGbVyYRwS1XoK-18" value="" style="shape=flexArrow;endArrow=classic;html=1;rounded=0;fillColor=#dae8fc;strokeColor=#6c8ebf;" parent="1" edge="1">
          <mxGeometry width="50" height="50" relative="1" as="geometry">
            <mxPoint x="260" y="485.5" as="sourcePoint" />
            <mxPoint x="340" y="526" as="targetPoint" />
          </mxGeometry>
        </mxCell>
        <mxCell id="j5MjGRpIGbVyYRwS1XoK-19" value="" style="shape=flexArrow;endArrow=classic;html=1;rounded=0;fillColor=#dae8fc;strokeColor=#6c8ebf;" parent="1" edge="1">
          <mxGeometry width="50" height="50" relative="1" as="geometry">
            <mxPoint x="260" y="645.5" as="sourcePoint" />
            <mxPoint x="340" y="596" as="targetPoint" />
          </mxGeometry>
        </mxCell>
        <mxCell id="j5MjGRpIGbVyYRwS1XoK-20" value="" style="shape=flexArrow;endArrow=classic;html=1;rounded=0;fillColor=#dae8fc;strokeColor=#6c8ebf;" parent="1" edge="1">
          <mxGeometry width="50" height="50" relative="1" as="geometry">
            <mxPoint x="470" y="536" as="sourcePoint" />
            <mxPoint x="560" y="496" as="targetPoint" />
          </mxGeometry>
        </mxCell>
        <mxCell id="j5MjGRpIGbVyYRwS1XoK-21" value="" style="shape=flexArrow;endArrow=classic;html=1;rounded=0;fillColor=#dae8fc;strokeColor=#6c8ebf;" parent="1" edge="1">
          <mxGeometry width="50" height="50" relative="1" as="geometry">
            <mxPoint x="470" y="596" as="sourcePoint" />
            <mxPoint x="550" y="646" as="targetPoint" />
          </mxGeometry>
        </mxCell>
        <mxCell id="j5MjGRpIGbVyYRwS1XoK-23" value="Simple Pub-Sub System" style="text;html=1;strokeColor=none;fillColor=none;align=center;verticalAlign=middle;whiteSpace=wrap;rounded=0;fontSize=30;" parent="1" vertex="1">
          <mxGeometry x="227" y="205" width="381" height="30" as="geometry" />
        </mxCell>
        <mxCell id="j5MjGRpIGbVyYRwS1XoK-24" value="Multiple Producers and Consumers" style="text;html=1;strokeColor=none;fillColor=none;align=center;verticalAlign=middle;whiteSpace=wrap;rounded=0;fontSize=30;" parent="1" vertex="1">
          <mxGeometry x="143" y="404" width="560" height="30" as="geometry" />
        </mxCell>
        <mxCell id="j5MjGRpIGbVyYRwS1XoK-26" value="Producer" style="rounded=1;whiteSpace=wrap;html=1;fontSize=23;fillColor=#f8cecc;strokeColor=#b85450;" parent="1" vertex="1">
          <mxGeometry x="78" y="954" width="120" height="60" as="geometry" />
        </mxCell>
        <mxCell id="j5MjGRpIGbVyYRwS1XoK-27" value="Consumer" style="rounded=1;whiteSpace=wrap;html=1;fontSize=23;fillColor=#fff2cc;strokeColor=#d6b656;" parent="1" vertex="1">
          <mxGeometry x="652" y="954" width="120" height="60" as="geometry" />
        </mxCell>
        <mxCell id="j5MjGRpIGbVyYRwS1XoK-28" value="Broker" style="shape=hexagon;perimeter=hexagonPerimeter2;whiteSpace=wrap;html=1;fixedSize=1;fontSize=23;fillColor=#006633;strokeColor=#6c8ebf;fontColor=#FFFFFF;" parent="1" vertex="1">
          <mxGeometry x="301.5" y="907.5" width="120" height="80" as="geometry" />
        </mxCell>
        <mxCell id="j5MjGRpIGbVyYRwS1XoK-31" value="Consumer" style="rounded=1;whiteSpace=wrap;html=1;fontSize=23;fillColor=#fff2cc;strokeColor=#d6b656;" parent="1" vertex="1">
          <mxGeometry x="652" y="874" width="120" height="60" as="geometry" />
        </mxCell>
        <mxCell id="j5MjGRpIGbVyYRwS1XoK-32" value="Consumer" style="rounded=1;whiteSpace=wrap;html=1;fontSize=23;fillColor=#fff2cc;strokeColor=#d6b656;" parent="1" vertex="1">
          <mxGeometry x="652" y="1034" width="120" height="60" as="geometry" />
        </mxCell>
        <mxCell id="j5MjGRpIGbVyYRwS1XoK-33" value="Producer" style="rounded=1;whiteSpace=wrap;html=1;fontSize=23;fillColor=#f8cecc;strokeColor=#b85450;" parent="1" vertex="1">
          <mxGeometry x="78" y="874" width="120" height="60" as="geometry" />
        </mxCell>
        <mxCell id="j5MjGRpIGbVyYRwS1XoK-34" value="Producer" style="rounded=1;whiteSpace=wrap;html=1;fontSize=23;fillColor=#f8cecc;strokeColor=#b85450;" parent="1" vertex="1">
          <mxGeometry x="78" y="1034" width="120" height="60" as="geometry" />
        </mxCell>
        <mxCell id="j5MjGRpIGbVyYRwS1XoK-39" value="Broker Cluster" style="text;html=1;strokeColor=none;fillColor=none;align=center;verticalAlign=middle;whiteSpace=wrap;rounded=0;fontSize=30;" parent="1" vertex="1">
          <mxGeometry x="142" y="817" width="560" height="30" as="geometry" />
        </mxCell>
        <mxCell id="j5MjGRpIGbVyYRwS1XoK-40" value="Broker" style="shape=hexagon;perimeter=hexagonPerimeter2;whiteSpace=wrap;html=1;fixedSize=1;fontSize=23;fillColor=#006633;strokeColor=#6c8ebf;fontColor=#FFFFFF;" parent="1" vertex="1">
          <mxGeometry x="301.5" y="992.5" width="120" height="80" as="geometry" />
        </mxCell>
        <mxCell id="j5MjGRpIGbVyYRwS1XoK-41" value="Broker" style="shape=hexagon;perimeter=hexagonPerimeter2;whiteSpace=wrap;html=1;fixedSize=1;fontSize=23;fillColor=#006633;strokeColor=#6c8ebf;fontColor=#FFFFFF;" parent="1" vertex="1">
          <mxGeometry x="421.5" y="907.5" width="120" height="80" as="geometry" />
        </mxCell>
        <mxCell id="j5MjGRpIGbVyYRwS1XoK-42" value="Broker" style="shape=hexagon;perimeter=hexagonPerimeter2;whiteSpace=wrap;html=1;fixedSize=1;fontSize=23;fillColor=#006633;strokeColor=#6c8ebf;fontColor=#FFFFFF;" parent="1" vertex="1">
          <mxGeometry x="421.5" y="992.5" width="120" height="80" as="geometry" />
        </mxCell>
        <mxCell id="j5MjGRpIGbVyYRwS1XoK-43" value="" style="rounded=0;whiteSpace=wrap;html=1;fillColor=none;strokeWidth=4;dashed=1;" parent="1" vertex="1">
          <mxGeometry x="291.5" y="880" width="261" height="208" as="geometry" />
        </mxCell>
        <mxCell id="j5MjGRpIGbVyYRwS1XoK-44" value="" style="shape=flexArrow;endArrow=classic;html=1;rounded=0;fillColor=#dae8fc;strokeColor=#6c8ebf;" parent="1" edge="1">
          <mxGeometry width="50" height="50" relative="1" as="geometry">
            <mxPoint x="213" y="903.5" as="sourcePoint" />
            <mxPoint x="282" y="904" as="targetPoint" />
          </mxGeometry>
        </mxCell>
        <mxCell id="j5MjGRpIGbVyYRwS1XoK-45" value="" style="shape=flexArrow;endArrow=classic;html=1;rounded=0;fillColor=#dae8fc;strokeColor=#6c8ebf;" parent="1" edge="1">
          <mxGeometry width="50" height="50" relative="1" as="geometry">
            <mxPoint x="213" y="983.5" as="sourcePoint" />
            <mxPoint x="283" y="983.5" as="targetPoint" />
          </mxGeometry>
        </mxCell>
        <mxCell id="j5MjGRpIGbVyYRwS1XoK-46" value="" style="shape=flexArrow;endArrow=classic;html=1;rounded=0;fillColor=#dae8fc;strokeColor=#6c8ebf;" parent="1" edge="1">
          <mxGeometry width="50" height="50" relative="1" as="geometry">
            <mxPoint x="213" y="1063.5" as="sourcePoint" />
            <mxPoint x="283" y="1063.5" as="targetPoint" />
          </mxGeometry>
        </mxCell>
        <mxCell id="j5MjGRpIGbVyYRwS1XoK-47" value="" style="shape=flexArrow;endArrow=classic;html=1;rounded=0;fillColor=#dae8fc;strokeColor=#6c8ebf;" parent="1" edge="1">
          <mxGeometry width="50" height="50" relative="1" as="geometry">
            <mxPoint x="573" y="903.5" as="sourcePoint" />
            <mxPoint x="642" y="904" as="targetPoint" />
          </mxGeometry>
        </mxCell>
        <mxCell id="j5MjGRpIGbVyYRwS1XoK-48" value="" style="shape=flexArrow;endArrow=classic;html=1;rounded=0;fillColor=#dae8fc;strokeColor=#6c8ebf;" parent="1" edge="1">
          <mxGeometry width="50" height="50" relative="1" as="geometry">
            <mxPoint x="573" y="983.5" as="sourcePoint" />
            <mxPoint x="643" y="983.5" as="targetPoint" />
          </mxGeometry>
        </mxCell>
        <mxCell id="j5MjGRpIGbVyYRwS1XoK-49" value="" style="shape=flexArrow;endArrow=classic;html=1;rounded=0;fillColor=#dae8fc;strokeColor=#6c8ebf;" parent="1" edge="1">
          <mxGeometry width="50" height="50" relative="1" as="geometry">
            <mxPoint x="573" y="1063.5" as="sourcePoint" />
            <mxPoint x="643" y="1063.5" as="targetPoint" />
          </mxGeometry>
        </mxCell>
        <mxCell id="j5MjGRpIGbVyYRwS1XoK-50" value="Producer" style="rounded=1;whiteSpace=wrap;html=1;fontSize=23;fillColor=#f8cecc;strokeColor=#b85450;" parent="1" vertex="1">
          <mxGeometry x="76" y="1446" width="120" height="60" as="geometry" />
        </mxCell>
        <mxCell id="j5MjGRpIGbVyYRwS1XoK-51" value="Consumer" style="rounded=1;whiteSpace=wrap;html=1;fontSize=23;fillColor=#fff2cc;strokeColor=#d6b656;" parent="1" vertex="1">
          <mxGeometry x="650" y="1446" width="120" height="60" as="geometry" />
        </mxCell>
        <mxCell id="j5MjGRpIGbVyYRwS1XoK-52" value="Broker" style="shape=hexagon;perimeter=hexagonPerimeter2;whiteSpace=wrap;html=1;fixedSize=1;fontSize=23;fillColor=#006633;strokeColor=#6c8ebf;fontColor=#FFFFFF;" parent="1" vertex="1">
          <mxGeometry x="299.5" y="1399.5" width="120" height="80" as="geometry" />
        </mxCell>
        <mxCell id="j5MjGRpIGbVyYRwS1XoK-53" value="Consumer" style="rounded=1;whiteSpace=wrap;html=1;fontSize=23;fillColor=#fff2cc;strokeColor=#d6b656;" parent="1" vertex="1">
          <mxGeometry x="650" y="1366" width="120" height="60" as="geometry" />
        </mxCell>
        <mxCell id="j5MjGRpIGbVyYRwS1XoK-54" value="Consumer" style="rounded=1;whiteSpace=wrap;html=1;fontSize=23;fillColor=#fff2cc;strokeColor=#d6b656;" parent="1" vertex="1">
          <mxGeometry x="650" y="1526" width="120" height="60" as="geometry" />
        </mxCell>
        <mxCell id="j5MjGRpIGbVyYRwS1XoK-55" value="Producer" style="rounded=1;whiteSpace=wrap;html=1;fontSize=23;fillColor=#f8cecc;strokeColor=#b85450;" parent="1" vertex="1">
          <mxGeometry x="76" y="1366" width="120" height="60" as="geometry" />
        </mxCell>
        <mxCell id="j5MjGRpIGbVyYRwS1XoK-56" value="Producer" style="rounded=1;whiteSpace=wrap;html=1;fontSize=23;fillColor=#f8cecc;strokeColor=#b85450;" parent="1" vertex="1">
          <mxGeometry x="76" y="1526" width="120" height="60" as="geometry" />
        </mxCell>
        <mxCell id="j5MjGRpIGbVyYRwS1XoK-58" value="Broker" style="shape=hexagon;perimeter=hexagonPerimeter2;whiteSpace=wrap;html=1;fixedSize=1;fontSize=23;fillColor=#006633;strokeColor=#6c8ebf;fontColor=#FFFFFF;" parent="1" vertex="1">
          <mxGeometry x="299.5" y="1484.5" width="120" height="80" as="geometry" />
        </mxCell>
        <mxCell id="j5MjGRpIGbVyYRwS1XoK-59" value="Broker" style="shape=hexagon;perimeter=hexagonPerimeter2;whiteSpace=wrap;html=1;fixedSize=1;fontSize=23;fillColor=#006633;strokeColor=#6c8ebf;fontColor=#FFFFFF;" parent="1" vertex="1">
          <mxGeometry x="419.5" y="1399.5" width="120" height="80" as="geometry" />
        </mxCell>
        <mxCell id="j5MjGRpIGbVyYRwS1XoK-60" value="Broker" style="shape=hexagon;perimeter=hexagonPerimeter2;whiteSpace=wrap;html=1;fixedSize=1;fontSize=23;fillColor=#006633;strokeColor=#6c8ebf;fontColor=#FFFFFF;" parent="1" vertex="1">
          <mxGeometry x="419.5" y="1484.5" width="120" height="80" as="geometry" />
        </mxCell>
        <mxCell id="j5MjGRpIGbVyYRwS1XoK-61" value="" style="rounded=0;whiteSpace=wrap;html=1;fillColor=none;strokeWidth=4;dashed=1;" parent="1" vertex="1">
          <mxGeometry x="289.5" y="1372" width="261" height="208" as="geometry" />
        </mxCell>
        <mxCell id="j5MjGRpIGbVyYRwS1XoK-62" value="" style="shape=flexArrow;endArrow=classic;html=1;rounded=0;fillColor=#dae8fc;strokeColor=#6c8ebf;" parent="1" edge="1">
          <mxGeometry width="50" height="50" relative="1" as="geometry">
            <mxPoint x="211" y="1395.5" as="sourcePoint" />
            <mxPoint x="280" y="1396" as="targetPoint" />
          </mxGeometry>
        </mxCell>
        <mxCell id="j5MjGRpIGbVyYRwS1XoK-63" value="" style="shape=flexArrow;endArrow=classic;html=1;rounded=0;fillColor=#dae8fc;strokeColor=#6c8ebf;" parent="1" edge="1">
          <mxGeometry width="50" height="50" relative="1" as="geometry">
            <mxPoint x="211" y="1475.5" as="sourcePoint" />
            <mxPoint x="281" y="1475.5" as="targetPoint" />
          </mxGeometry>
        </mxCell>
        <mxCell id="j5MjGRpIGbVyYRwS1XoK-64" value="" style="shape=flexArrow;endArrow=classic;html=1;rounded=0;fillColor=#dae8fc;strokeColor=#6c8ebf;" parent="1" edge="1">
          <mxGeometry width="50" height="50" relative="1" as="geometry">
            <mxPoint x="211" y="1555.5" as="sourcePoint" />
            <mxPoint x="281" y="1555.5" as="targetPoint" />
          </mxGeometry>
        </mxCell>
        <mxCell id="j5MjGRpIGbVyYRwS1XoK-65" value="" style="shape=flexArrow;endArrow=classic;html=1;rounded=0;fillColor=#dae8fc;strokeColor=#6c8ebf;" parent="1" edge="1">
          <mxGeometry width="50" height="50" relative="1" as="geometry">
            <mxPoint x="571" y="1395.5" as="sourcePoint" />
            <mxPoint x="640" y="1396" as="targetPoint" />
          </mxGeometry>
        </mxCell>
        <mxCell id="j5MjGRpIGbVyYRwS1XoK-66" value="" style="shape=flexArrow;endArrow=classic;html=1;rounded=0;fillColor=#dae8fc;strokeColor=#6c8ebf;" parent="1" edge="1">
          <mxGeometry width="50" height="50" relative="1" as="geometry">
            <mxPoint x="571" y="1475.5" as="sourcePoint" />
            <mxPoint x="641" y="1475.5" as="targetPoint" />
          </mxGeometry>
        </mxCell>
        <mxCell id="j5MjGRpIGbVyYRwS1XoK-67" value="" style="shape=flexArrow;endArrow=classic;html=1;rounded=0;fillColor=#dae8fc;strokeColor=#6c8ebf;" parent="1" edge="1">
          <mxGeometry width="50" height="50" relative="1" as="geometry">
            <mxPoint x="571" y="1555.5" as="sourcePoint" />
            <mxPoint x="641" y="1555.5" as="targetPoint" />
          </mxGeometry>
        </mxCell>
        <mxCell id="j5MjGRpIGbVyYRwS1XoK-68" value="Zookeeper" style="ellipse;whiteSpace=wrap;html=1;aspect=fixed;fontSize=25;fillColor=#CC00CC;fontColor=#FFFFCC;" parent="1" vertex="1">
          <mxGeometry x="339" y="1122" width="149" height="149" as="geometry" />
        </mxCell>
        <mxCell id="j5MjGRpIGbVyYRwS1XoK-69" value="" style="shape=flexArrow;endArrow=classic;startArrow=classic;html=1;rounded=0;strokeColor=#CC00CC;" parent="1" edge="1">
          <mxGeometry width="100" height="100" relative="1" as="geometry">
            <mxPoint x="415" y="1358.52" as="sourcePoint" />
            <mxPoint x="415" y="1280" as="targetPoint" />
          </mxGeometry>
        </mxCell>
        <mxCell id="j5MjGRpIGbVyYRwS1XoK-70" value="Producer" style="rounded=1;whiteSpace=wrap;html=1;fontSize=23;fillColor=#f8cecc;strokeColor=#b85450;" parent="1" vertex="1">
          <mxGeometry x="63" y="2082" width="120" height="60" as="geometry" />
        </mxCell>
        <mxCell id="j5MjGRpIGbVyYRwS1XoK-71" value="Consumer" style="rounded=1;whiteSpace=wrap;html=1;fontSize=23;fillColor=#fff2cc;strokeColor=#d6b656;" parent="1" vertex="1">
          <mxGeometry x="637" y="2082" width="120" height="60" as="geometry" />
        </mxCell>
        <mxCell id="j5MjGRpIGbVyYRwS1XoK-72" value="Broker" style="shape=hexagon;perimeter=hexagonPerimeter2;whiteSpace=wrap;html=1;fixedSize=1;fontSize=23;fillColor=#006633;strokeColor=#6c8ebf;fontColor=#FFFFFF;" parent="1" vertex="1">
          <mxGeometry x="286.5" y="2035.5" width="120" height="80" as="geometry" />
        </mxCell>
        <mxCell id="j5MjGRpIGbVyYRwS1XoK-73" value="Consumer" style="rounded=1;whiteSpace=wrap;html=1;fontSize=23;fillColor=#fff2cc;strokeColor=#d6b656;" parent="1" vertex="1">
          <mxGeometry x="637" y="2002" width="120" height="60" as="geometry" />
        </mxCell>
        <mxCell id="j5MjGRpIGbVyYRwS1XoK-74" value="Consumer" style="rounded=1;whiteSpace=wrap;html=1;fontSize=23;fillColor=#fff2cc;strokeColor=#d6b656;" parent="1" vertex="1">
          <mxGeometry x="637" y="2162" width="120" height="60" as="geometry" />
        </mxCell>
        <mxCell id="j5MjGRpIGbVyYRwS1XoK-75" value="Producer" style="rounded=1;whiteSpace=wrap;html=1;fontSize=23;fillColor=#f8cecc;strokeColor=#b85450;" parent="1" vertex="1">
          <mxGeometry x="63" y="2002" width="120" height="60" as="geometry" />
        </mxCell>
        <mxCell id="j5MjGRpIGbVyYRwS1XoK-76" value="Producer" style="rounded=1;whiteSpace=wrap;html=1;fontSize=23;fillColor=#f8cecc;strokeColor=#b85450;" parent="1" vertex="1">
          <mxGeometry x="63" y="2162" width="120" height="60" as="geometry" />
        </mxCell>
        <mxCell id="j5MjGRpIGbVyYRwS1XoK-77" value="Broker" style="shape=hexagon;perimeter=hexagonPerimeter2;whiteSpace=wrap;html=1;fixedSize=1;fontSize=23;fillColor=#006633;strokeColor=#6c8ebf;fontColor=#FFFFFF;" parent="1" vertex="1">
          <mxGeometry x="286.5" y="2120.5" width="120" height="80" as="geometry" />
        </mxCell>
        <mxCell id="j5MjGRpIGbVyYRwS1XoK-78" value="Broker" style="shape=hexagon;perimeter=hexagonPerimeter2;whiteSpace=wrap;html=1;fixedSize=1;fontSize=23;fillColor=#006633;strokeColor=#6c8ebf;fontColor=#FFFFFF;" parent="1" vertex="1">
          <mxGeometry x="406.5" y="2035.5" width="120" height="80" as="geometry" />
        </mxCell>
        <mxCell id="j5MjGRpIGbVyYRwS1XoK-79" value="Broker" style="shape=hexagon;perimeter=hexagonPerimeter2;whiteSpace=wrap;html=1;fixedSize=1;fontSize=23;fillColor=#006633;strokeColor=#6c8ebf;fontColor=#FFFFFF;" parent="1" vertex="1">
          <mxGeometry x="406.5" y="2120.5" width="120" height="80" as="geometry" />
        </mxCell>
        <mxCell id="j5MjGRpIGbVyYRwS1XoK-80" value="" style="rounded=0;whiteSpace=wrap;html=1;fillColor=none;strokeWidth=4;dashed=1;" parent="1" vertex="1">
          <mxGeometry x="276.5" y="2008" width="261" height="208" as="geometry" />
        </mxCell>
        <mxCell id="j5MjGRpIGbVyYRwS1XoK-81" value="" style="shape=flexArrow;endArrow=classic;html=1;rounded=0;fillColor=#dae8fc;strokeColor=#6c8ebf;" parent="1" edge="1">
          <mxGeometry width="50" height="50" relative="1" as="geometry">
            <mxPoint x="198" y="2031.5" as="sourcePoint" />
            <mxPoint x="267" y="2032" as="targetPoint" />
          </mxGeometry>
        </mxCell>
        <mxCell id="j5MjGRpIGbVyYRwS1XoK-82" value="" style="shape=flexArrow;endArrow=classic;html=1;rounded=0;fillColor=#dae8fc;strokeColor=#6c8ebf;" parent="1" edge="1">
          <mxGeometry width="50" height="50" relative="1" as="geometry">
            <mxPoint x="198" y="2111.5" as="sourcePoint" />
            <mxPoint x="268" y="2111.5" as="targetPoint" />
          </mxGeometry>
        </mxCell>
        <mxCell id="j5MjGRpIGbVyYRwS1XoK-83" value="" style="shape=flexArrow;endArrow=classic;html=1;rounded=0;fillColor=#dae8fc;strokeColor=#6c8ebf;" parent="1" edge="1">
          <mxGeometry width="50" height="50" relative="1" as="geometry">
            <mxPoint x="198" y="2191.5" as="sourcePoint" />
            <mxPoint x="268" y="2191.5" as="targetPoint" />
          </mxGeometry>
        </mxCell>
        <mxCell id="j5MjGRpIGbVyYRwS1XoK-84" value="" style="shape=flexArrow;endArrow=classic;html=1;rounded=0;fillColor=#dae8fc;strokeColor=#6c8ebf;" parent="1" edge="1">
          <mxGeometry width="50" height="50" relative="1" as="geometry">
            <mxPoint x="558" y="2031.5" as="sourcePoint" />
            <mxPoint x="627" y="2032" as="targetPoint" />
          </mxGeometry>
        </mxCell>
        <mxCell id="j5MjGRpIGbVyYRwS1XoK-85" value="" style="shape=flexArrow;endArrow=classic;html=1;rounded=0;fillColor=#dae8fc;strokeColor=#6c8ebf;" parent="1" edge="1">
          <mxGeometry width="50" height="50" relative="1" as="geometry">
            <mxPoint x="558" y="2111.5" as="sourcePoint" />
            <mxPoint x="628" y="2111.5" as="targetPoint" />
          </mxGeometry>
        </mxCell>
        <mxCell id="j5MjGRpIGbVyYRwS1XoK-86" value="" style="shape=flexArrow;endArrow=classic;html=1;rounded=0;fillColor=#dae8fc;strokeColor=#6c8ebf;" parent="1" edge="1">
          <mxGeometry width="50" height="50" relative="1" as="geometry">
            <mxPoint x="558" y="2191.5" as="sourcePoint" />
            <mxPoint x="628" y="2191.5" as="targetPoint" />
          </mxGeometry>
        </mxCell>
        <mxCell id="j5MjGRpIGbVyYRwS1XoK-87" value="Zookeeper" style="ellipse;whiteSpace=wrap;html=1;aspect=fixed;fontSize=25;fillColor=#CC00CC;fontColor=#FFFFCC;" parent="1" vertex="1">
          <mxGeometry x="322" y="1746" width="149" height="149" as="geometry" />
        </mxCell>
        <mxCell id="j5MjGRpIGbVyYRwS1XoK-88" value="" style="shape=flexArrow;endArrow=classic;startArrow=classic;html=1;rounded=0;strokeColor=#CC00CC;" parent="1" edge="1">
          <mxGeometry width="100" height="100" relative="1" as="geometry">
            <mxPoint x="402" y="1994.52" as="sourcePoint" />
            <mxPoint x="402" y="1916" as="targetPoint" />
          </mxGeometry>
        </mxCell>
        <mxCell id="j5MjGRpIGbVyYRwS1XoK-89" value="Zookeeper" style="ellipse;whiteSpace=wrap;html=1;aspect=fixed;fontSize=25;fillColor=#CC00CC;fontColor=#FFFFCC;" parent="1" vertex="1">
          <mxGeometry x="148.5" y="1746" width="149" height="149" as="geometry" />
        </mxCell>
        <mxCell id="j5MjGRpIGbVyYRwS1XoK-90" value="Zookeeper" style="ellipse;whiteSpace=wrap;html=1;aspect=fixed;fontSize=25;fillColor=#CC00CC;fontColor=#FFFFCC;" parent="1" vertex="1">
          <mxGeometry x="497" y="1746" width="149" height="149" as="geometry" />
        </mxCell>
        <mxCell id="j5MjGRpIGbVyYRwS1XoK-91" value="" style="rounded=0;whiteSpace=wrap;html=1;fillColor=none;strokeWidth=4;dashed=1;" parent="1" vertex="1">
          <mxGeometry x="138" y="1713" width="526" height="198" as="geometry" />
        </mxCell>
        <mxCell id="j5MjGRpIGbVyYRwS1XoK-92" value="Zookeeper Cluster (ensemble)" style="text;html=1;strokeColor=none;fillColor=none;align=center;verticalAlign=middle;whiteSpace=wrap;rounded=0;fontSize=30;" parent="1" vertex="1">
          <mxGeometry x="121" y="1655" width="560" height="30" as="geometry" />
        </mxCell>
        <mxCell id="j5MjGRpIGbVyYRwS1XoK-93" value="Producer" style="rounded=1;whiteSpace=wrap;html=1;fontSize=23;fillColor=#f8cecc;strokeColor=#b85450;" parent="1" vertex="1">
          <mxGeometry x="60" y="2882" width="120" height="60" as="geometry" />
        </mxCell>
        <mxCell id="j5MjGRpIGbVyYRwS1XoK-94" value="Consumer" style="rounded=1;whiteSpace=wrap;html=1;fontSize=23;fillColor=#fff2cc;strokeColor=#d6b656;" parent="1" vertex="1">
          <mxGeometry x="634" y="2882" width="120" height="60" as="geometry" />
        </mxCell>
        <mxCell id="j5MjGRpIGbVyYRwS1XoK-95" value="Broker" style="shape=hexagon;perimeter=hexagonPerimeter2;whiteSpace=wrap;html=1;fixedSize=1;fontSize=23;fillColor=#006633;strokeColor=#6c8ebf;fontColor=#FFFFFF;" parent="1" vertex="1">
          <mxGeometry x="283.5" y="2835.5" width="120" height="80" as="geometry" />
        </mxCell>
        <mxCell id="j5MjGRpIGbVyYRwS1XoK-96" value="Consumer" style="rounded=1;whiteSpace=wrap;html=1;fontSize=23;fillColor=#fff2cc;strokeColor=#d6b656;" parent="1" vertex="1">
          <mxGeometry x="634" y="2802" width="120" height="60" as="geometry" />
        </mxCell>
        <mxCell id="j5MjGRpIGbVyYRwS1XoK-97" value="Consumer" style="rounded=1;whiteSpace=wrap;html=1;fontSize=23;fillColor=#fff2cc;strokeColor=#d6b656;" parent="1" vertex="1">
          <mxGeometry x="634" y="2962" width="120" height="60" as="geometry" />
        </mxCell>
        <mxCell id="j5MjGRpIGbVyYRwS1XoK-98" value="Producer" style="rounded=1;whiteSpace=wrap;html=1;fontSize=23;fillColor=#f8cecc;strokeColor=#b85450;" parent="1" vertex="1">
          <mxGeometry x="60" y="2802" width="120" height="60" as="geometry" />
        </mxCell>
        <mxCell id="j5MjGRpIGbVyYRwS1XoK-99" value="Producer" style="rounded=1;whiteSpace=wrap;html=1;fontSize=23;fillColor=#f8cecc;strokeColor=#b85450;" parent="1" vertex="1">
          <mxGeometry x="60" y="2962" width="120" height="60" as="geometry" />
        </mxCell>
        <mxCell id="j5MjGRpIGbVyYRwS1XoK-100" value="Broker" style="shape=hexagon;perimeter=hexagonPerimeter2;whiteSpace=wrap;html=1;fixedSize=1;fontSize=23;fillColor=#006633;strokeColor=#6c8ebf;fontColor=#FFFFFF;" parent="1" vertex="1">
          <mxGeometry x="283.5" y="2920.5" width="120" height="80" as="geometry" />
        </mxCell>
        <mxCell id="j5MjGRpIGbVyYRwS1XoK-101" value="Broker" style="shape=hexagon;perimeter=hexagonPerimeter2;whiteSpace=wrap;html=1;fixedSize=1;fontSize=23;fillColor=#006633;strokeColor=#6c8ebf;fontColor=#FFFFFF;" parent="1" vertex="1">
          <mxGeometry x="403.5" y="2835.5" width="120" height="80" as="geometry" />
        </mxCell>
        <mxCell id="j5MjGRpIGbVyYRwS1XoK-102" value="Broker" style="shape=hexagon;perimeter=hexagonPerimeter2;whiteSpace=wrap;html=1;fixedSize=1;fontSize=23;fillColor=#006633;strokeColor=#6c8ebf;fontColor=#FFFFFF;" parent="1" vertex="1">
          <mxGeometry x="403.5" y="2920.5" width="120" height="80" as="geometry" />
        </mxCell>
        <mxCell id="j5MjGRpIGbVyYRwS1XoK-103" value="" style="rounded=0;whiteSpace=wrap;html=1;fillColor=none;strokeWidth=4;dashed=1;" parent="1" vertex="1">
          <mxGeometry x="273.5" y="2808" width="261" height="208" as="geometry" />
        </mxCell>
        <mxCell id="j5MjGRpIGbVyYRwS1XoK-104" value="" style="shape=flexArrow;endArrow=classic;html=1;rounded=0;fillColor=#dae8fc;strokeColor=#6c8ebf;" parent="1" edge="1">
          <mxGeometry width="50" height="50" relative="1" as="geometry">
            <mxPoint x="195" y="2831.5" as="sourcePoint" />
            <mxPoint x="264" y="2832" as="targetPoint" />
          </mxGeometry>
        </mxCell>
        <mxCell id="j5MjGRpIGbVyYRwS1XoK-105" value="" style="shape=flexArrow;endArrow=classic;html=1;rounded=0;fillColor=#dae8fc;strokeColor=#6c8ebf;" parent="1" edge="1">
          <mxGeometry width="50" height="50" relative="1" as="geometry">
            <mxPoint x="195" y="2911.5" as="sourcePoint" />
            <mxPoint x="265" y="2911.5" as="targetPoint" />
          </mxGeometry>
        </mxCell>
        <mxCell id="j5MjGRpIGbVyYRwS1XoK-106" value="" style="shape=flexArrow;endArrow=classic;html=1;rounded=0;fillColor=#dae8fc;strokeColor=#6c8ebf;" parent="1" edge="1">
          <mxGeometry width="50" height="50" relative="1" as="geometry">
            <mxPoint x="195" y="2991.5" as="sourcePoint" />
            <mxPoint x="265" y="2991.5" as="targetPoint" />
          </mxGeometry>
        </mxCell>
        <mxCell id="j5MjGRpIGbVyYRwS1XoK-107" value="" style="shape=flexArrow;endArrow=classic;html=1;rounded=0;fillColor=#dae8fc;strokeColor=#6c8ebf;" parent="1" edge="1">
          <mxGeometry width="50" height="50" relative="1" as="geometry">
            <mxPoint x="555" y="2831.5" as="sourcePoint" />
            <mxPoint x="624" y="2832" as="targetPoint" />
          </mxGeometry>
        </mxCell>
        <mxCell id="j5MjGRpIGbVyYRwS1XoK-108" value="" style="shape=flexArrow;endArrow=classic;html=1;rounded=0;fillColor=#dae8fc;strokeColor=#6c8ebf;" parent="1" edge="1">
          <mxGeometry width="50" height="50" relative="1" as="geometry">
            <mxPoint x="555" y="2911.5" as="sourcePoint" />
            <mxPoint x="625" y="2911.5" as="targetPoint" />
          </mxGeometry>
        </mxCell>
        <mxCell id="j5MjGRpIGbVyYRwS1XoK-109" value="" style="shape=flexArrow;endArrow=classic;html=1;rounded=0;fillColor=#dae8fc;strokeColor=#6c8ebf;" parent="1" edge="1">
          <mxGeometry width="50" height="50" relative="1" as="geometry">
            <mxPoint x="555" y="2991.5" as="sourcePoint" />
            <mxPoint x="625" y="2991.5" as="targetPoint" />
          </mxGeometry>
        </mxCell>
        <mxCell id="j5MjGRpIGbVyYRwS1XoK-111" value="" style="shape=flexArrow;endArrow=classic;startArrow=classic;html=1;rounded=0;strokeColor=#CC00CC;" parent="1" edge="1">
          <mxGeometry width="100" height="100" relative="1" as="geometry">
            <mxPoint x="399" y="2794.52" as="sourcePoint" />
            <mxPoint x="399" y="2716" as="targetPoint" />
          </mxGeometry>
        </mxCell>
        <mxCell id="j5MjGRpIGbVyYRwS1XoK-113" value="Zookeeper" style="ellipse;whiteSpace=wrap;html=1;aspect=fixed;fontSize=20;fillColor=#CC00CC;fontColor=#FFFFCC;" parent="1" vertex="1">
          <mxGeometry x="461" y="2558.87" width="114" height="114" as="geometry" />
        </mxCell>
        <mxCell id="j5MjGRpIGbVyYRwS1XoK-115" value="Zookeeper Cluster (ensemble)" style="text;html=1;strokeColor=none;fillColor=none;align=center;verticalAlign=middle;whiteSpace=wrap;rounded=0;fontSize=30;" parent="1" vertex="1">
          <mxGeometry x="120.68" y="2432" width="560" height="30" as="geometry" />
        </mxCell>
        <mxCell id="j5MjGRpIGbVyYRwS1XoK-117" value="" style="shape=flexArrow;endArrow=classic;startArrow=classic;html=1;rounded=0;fillColor=#dae8fc;strokeColor=#6c8ebf;" parent="1" edge="1">
          <mxGeometry width="100" height="100" relative="1" as="geometry">
            <mxPoint x="342.5" y="2616.64" as="sourcePoint" />
            <mxPoint x="455.5" y="2616.64" as="targetPoint" />
          </mxGeometry>
        </mxCell>
        <mxCell id="j5MjGRpIGbVyYRwS1XoK-118" value="" style="shape=cross;whiteSpace=wrap;html=1;rotation=45;size=0.12813515836136447;fillColor=#CC0000;" parent="1" vertex="1">
          <mxGeometry x="384.20000000000005" y="2600.0099999999998" width="32.96" height="31.73" as="geometry" />
        </mxCell>
        <mxCell id="j5MjGRpIGbVyYRwS1XoK-125" value="&lt;font color=&quot;#33001a&quot;&gt;&lt;span style=&quot;font-size: 18px;&quot;&gt;&lt;b&gt;Recommendation&lt;/b&gt;&lt;/span&gt;&lt;/font&gt;&amp;nbsp;&lt;br&gt;&lt;div style=&quot;text-align: left;&quot;&gt;&lt;ul&gt;&lt;li&gt;&lt;span style=&quot;background-color: initial;&quot;&gt;number of server (n) =&amp;nbsp;&lt;/span&gt;&lt;font style=&quot;background-color: initial; border-color: var(--border-color);&quot; color=&quot;#007fff&quot;&gt;&lt;b style=&quot;border-color: var(--border-color);&quot;&gt;odd&lt;/b&gt;&lt;/font&gt;&lt;span style=&quot;background-color: initial;&quot;&gt;&amp;nbsp; (1,3,5,7 etc).&lt;/span&gt;&lt;/li&gt;&lt;li&gt;quorum = &lt;font style=&quot;background-color: initial;&quot; color=&quot;#007fff&quot;&gt;&lt;b&gt;(n+1)/2&lt;/b&gt;&amp;nbsp;&lt;/font&gt;&lt;span style=&quot;background-color: initial;&quot;&gt;&amp;nbsp;&lt;/span&gt;&lt;/li&gt;&lt;/ul&gt;&lt;/div&gt;" style="whiteSpace=wrap;html=1;rounded=1;arcSize=50;align=center;verticalAlign=middle;strokeWidth=1;autosize=1;spacing=4;treeFolding=1;treeMoving=1;newEdgeStyle={&quot;edgeStyle&quot;:&quot;entityRelationEdgeStyle&quot;,&quot;startArrow&quot;:&quot;none&quot;,&quot;endArrow&quot;:&quot;none&quot;,&quot;segment&quot;:10,&quot;curved&quot;:1,&quot;sourcePerimeterSpacing&quot;:0,&quot;targetPerimeterSpacing&quot;:0};fontSize=12;fillColor=#fff2cc;strokeColor=#d6b656;" parent="1" vertex="1">
          <mxGeometry x="774" y="2549" width="271" height="90" as="geometry" />
        </mxCell>
        <mxCell id="j5MjGRpIGbVyYRwS1XoK-126" value="" style="edgeStyle=entityRelationEdgeStyle;startArrow=none;endArrow=none;segment=10;curved=1;sourcePerimeterSpacing=0;targetPerimeterSpacing=0;rounded=0;strokeWidth=5;strokeColor=#FFB570;" parent="1" target="j5MjGRpIGbVyYRwS1XoK-125" edge="1">
          <mxGeometry relative="1" as="geometry">
            <mxPoint x="727" y="2549" as="sourcePoint" />
          </mxGeometry>
        </mxCell>
        <mxCell id="Is1JPiRmSpWM-kc08yyg-2" value="&lt;font style=&quot;font-size: 18px;&quot;&gt;&lt;b&gt;Bad Design Example&lt;/b&gt;&lt;/font&gt;&amp;nbsp;&lt;br&gt;&lt;br&gt;&lt;div style=&quot;text-align: left;&quot;&gt;&lt;span style=&quot;background-color: initial;&quot;&gt;Imagine we have network issue between&amp;nbsp; US and Asia.&lt;/span&gt;&lt;/div&gt;&lt;div style=&quot;text-align: left;&quot;&gt;&lt;span style=&quot;background-color: initial;&quot;&gt;We may end up with:&lt;/span&gt;&lt;/div&gt;&lt;ul&gt;&lt;li style=&quot;text-align: left;&quot;&gt;2 zookeper ensembles managing the same Kafka broker cluster&lt;/li&gt;&lt;li style=&quot;text-align: left;&quot;&gt;number of server (n) = 4&lt;/li&gt;&lt;li style=&quot;text-align: left;&quot;&gt;quorum = 2&lt;/li&gt;&lt;/ul&gt;" style="whiteSpace=wrap;html=1;rounded=1;arcSize=50;align=center;verticalAlign=middle;strokeWidth=1;autosize=1;spacing=4;treeFolding=1;treeMoving=1;newEdgeStyle={&quot;edgeStyle&quot;:&quot;entityRelationEdgeStyle&quot;,&quot;startArrow&quot;:&quot;none&quot;,&quot;endArrow&quot;:&quot;none&quot;,&quot;segment&quot;:10,&quot;curved&quot;:1,&quot;sourcePerimeterSpacing&quot;:0,&quot;targetPerimeterSpacing&quot;:0};fontSize=12;fillColor=#FF9999;strokeColor=#CC0000;fontColor=#33001A;" vertex="1" parent="1">
          <mxGeometry x="764" y="2650" width="398" height="148" as="geometry" />
        </mxCell>
        <mxCell id="Is1JPiRmSpWM-kc08yyg-3" value="" style="edgeStyle=entityRelationEdgeStyle;startArrow=none;endArrow=none;segment=10;curved=1;sourcePerimeterSpacing=0;targetPerimeterSpacing=0;rounded=0;strokeWidth=5;strokeColor=#CC0066;fillColor=#f8cecc;" edge="1" parent="1" target="Is1JPiRmSpWM-kc08yyg-2">
          <mxGeometry relative="1" as="geometry">
            <mxPoint x="727" y="2674" as="sourcePoint" />
          </mxGeometry>
        </mxCell>
        <mxCell id="Is1JPiRmSpWM-kc08yyg-5" value="US Cloud" style="text;html=1;strokeColor=none;fillColor=none;align=center;verticalAlign=middle;whiteSpace=wrap;rounded=0;fontSize=30;fontColor=#99004D;" vertex="1" parent="1">
          <mxGeometry x="114" y="2517" width="193" height="30" as="geometry" />
        </mxCell>
        <mxCell id="Is1JPiRmSpWM-kc08yyg-6" value="Asia Cloud" style="text;html=1;strokeColor=none;fillColor=none;align=center;verticalAlign=middle;whiteSpace=wrap;rounded=0;fontSize=30;fontColor=#99004D;" vertex="1" parent="1">
          <mxGeometry x="503" y="2517" width="193" height="30" as="geometry" />
        </mxCell>
        <mxCell id="Is1JPiRmSpWM-kc08yyg-7" value="Network Issue" style="text;html=1;strokeColor=none;fillColor=none;align=center;verticalAlign=middle;whiteSpace=wrap;rounded=0;fontSize=14;fontColor=#0066CC;" vertex="1" parent="1">
          <mxGeometry x="307" y="2568" width="193" height="30" as="geometry" />
        </mxCell>
        <mxCell id="Is1JPiRmSpWM-kc08yyg-8" value="Zookeeper" style="ellipse;whiteSpace=wrap;html=1;aspect=fixed;fontSize=20;fillColor=#CC00CC;fontColor=#FFFFCC;" vertex="1" parent="1">
          <mxGeometry x="582" y="2558.87" width="114" height="114" as="geometry" />
        </mxCell>
        <mxCell id="Is1JPiRmSpWM-kc08yyg-9" value="Zookeeper" style="ellipse;whiteSpace=wrap;html=1;aspect=fixed;fontSize=20;fillColor=#CC00CC;fontColor=#FFFFCC;" vertex="1" parent="1">
          <mxGeometry x="100" y="2556" width="114" height="114" as="geometry" />
        </mxCell>
        <mxCell id="Is1JPiRmSpWM-kc08yyg-10" value="Zookeeper" style="ellipse;whiteSpace=wrap;html=1;aspect=fixed;fontSize=20;fillColor=#CC00CC;fontColor=#FFFFCC;" vertex="1" parent="1">
          <mxGeometry x="221" y="2556" width="114" height="114" as="geometry" />
        </mxCell>
        <mxCell id="Is1JPiRmSpWM-kc08yyg-31" value="Many Kafka Clusters" style="text;html=1;strokeColor=none;fillColor=none;align=center;verticalAlign=middle;whiteSpace=wrap;rounded=0;fontSize=38;" vertex="1" parent="1">
          <mxGeometry x="1814" y="2496" width="560" height="30" as="geometry" />
        </mxCell>
        <mxCell id="Is1JPiRmSpWM-kc08yyg-68" value="" style="rounded=0;whiteSpace=wrap;html=1;fillColor=#dae8fc;strokeColor=#6c8ebf;" vertex="1" parent="1">
          <mxGeometry x="1296" y="2554" width="761" height="529" as="geometry" />
        </mxCell>
        <mxCell id="Is1JPiRmSpWM-kc08yyg-43" value="" style="group;rotation=90;" vertex="1" connectable="0" parent="1">
          <mxGeometry x="1336" y="2627" width="694" height="441" as="geometry" />
        </mxCell>
        <mxCell id="Is1JPiRmSpWM-kc08yyg-11" value="" style="rounded=0;whiteSpace=wrap;html=1;fillColor=none;strokeWidth=4;dashed=1;" vertex="1" parent="Is1JPiRmSpWM-kc08yyg-43">
          <mxGeometry x="145" width="403" height="132" as="geometry" />
        </mxCell>
        <mxCell id="Is1JPiRmSpWM-kc08yyg-12" value="Producer" style="rounded=1;whiteSpace=wrap;html=1;fontSize=23;fillColor=#f8cecc;strokeColor=#b85450;" vertex="1" parent="Is1JPiRmSpWM-kc08yyg-43">
          <mxGeometry y="301" width="120" height="60" as="geometry" />
        </mxCell>
        <mxCell id="Is1JPiRmSpWM-kc08yyg-13" value="Consumer" style="rounded=1;whiteSpace=wrap;html=1;fontSize=23;fillColor=#fff2cc;strokeColor=#d6b656;" vertex="1" parent="Is1JPiRmSpWM-kc08yyg-43">
          <mxGeometry x="574" y="301" width="120" height="60" as="geometry" />
        </mxCell>
        <mxCell id="Is1JPiRmSpWM-kc08yyg-14" value="Broker" style="shape=hexagon;perimeter=hexagonPerimeter2;whiteSpace=wrap;html=1;fixedSize=1;fontSize=23;fillColor=#006633;strokeColor=#6c8ebf;fontColor=#FFFFFF;" vertex="1" parent="Is1JPiRmSpWM-kc08yyg-43">
          <mxGeometry x="223.5" y="254.5" width="120" height="80" as="geometry" />
        </mxCell>
        <mxCell id="Is1JPiRmSpWM-kc08yyg-15" value="Consumer" style="rounded=1;whiteSpace=wrap;html=1;fontSize=23;fillColor=#fff2cc;strokeColor=#d6b656;" vertex="1" parent="Is1JPiRmSpWM-kc08yyg-43">
          <mxGeometry x="574" y="221" width="120" height="60" as="geometry" />
        </mxCell>
        <mxCell id="Is1JPiRmSpWM-kc08yyg-16" value="Consumer" style="rounded=1;whiteSpace=wrap;html=1;fontSize=23;fillColor=#fff2cc;strokeColor=#d6b656;" vertex="1" parent="Is1JPiRmSpWM-kc08yyg-43">
          <mxGeometry x="574" y="381" width="120" height="60" as="geometry" />
        </mxCell>
        <mxCell id="Is1JPiRmSpWM-kc08yyg-17" value="Producer" style="rounded=1;whiteSpace=wrap;html=1;fontSize=23;fillColor=#f8cecc;strokeColor=#b85450;" vertex="1" parent="Is1JPiRmSpWM-kc08yyg-43">
          <mxGeometry y="221" width="120" height="60" as="geometry" />
        </mxCell>
        <mxCell id="Is1JPiRmSpWM-kc08yyg-18" value="Producer" style="rounded=1;whiteSpace=wrap;html=1;fontSize=23;fillColor=#f8cecc;strokeColor=#b85450;" vertex="1" parent="Is1JPiRmSpWM-kc08yyg-43">
          <mxGeometry y="381" width="120" height="60" as="geometry" />
        </mxCell>
        <mxCell id="Is1JPiRmSpWM-kc08yyg-19" value="Broker" style="shape=hexagon;perimeter=hexagonPerimeter2;whiteSpace=wrap;html=1;fixedSize=1;fontSize=23;fillColor=#006633;strokeColor=#6c8ebf;fontColor=#FFFFFF;" vertex="1" parent="Is1JPiRmSpWM-kc08yyg-43">
          <mxGeometry x="223.5" y="339.5" width="120" height="80" as="geometry" />
        </mxCell>
        <mxCell id="Is1JPiRmSpWM-kc08yyg-20" value="Broker" style="shape=hexagon;perimeter=hexagonPerimeter2;whiteSpace=wrap;html=1;fixedSize=1;fontSize=23;fillColor=#006633;strokeColor=#6c8ebf;fontColor=#FFFFFF;" vertex="1" parent="Is1JPiRmSpWM-kc08yyg-43">
          <mxGeometry x="343.5" y="254.5" width="120" height="80" as="geometry" />
        </mxCell>
        <mxCell id="Is1JPiRmSpWM-kc08yyg-21" value="Broker" style="shape=hexagon;perimeter=hexagonPerimeter2;whiteSpace=wrap;html=1;fixedSize=1;fontSize=23;fillColor=#006633;strokeColor=#6c8ebf;fontColor=#FFFFFF;" vertex="1" parent="Is1JPiRmSpWM-kc08yyg-43">
          <mxGeometry x="343.5" y="339.5" width="120" height="80" as="geometry" />
        </mxCell>
        <mxCell id="Is1JPiRmSpWM-kc08yyg-22" value="" style="rounded=0;whiteSpace=wrap;html=1;fillColor=none;strokeWidth=4;dashed=1;" vertex="1" parent="Is1JPiRmSpWM-kc08yyg-43">
          <mxGeometry x="213.5" y="227" width="261" height="208" as="geometry" />
        </mxCell>
        <mxCell id="Is1JPiRmSpWM-kc08yyg-23" value="" style="shape=flexArrow;endArrow=classic;html=1;rounded=0;fillColor=#dae8fc;strokeColor=#6c8ebf;" edge="1" parent="Is1JPiRmSpWM-kc08yyg-43">
          <mxGeometry width="50" height="50" relative="1" as="geometry">
            <mxPoint x="135" y="250.5" as="sourcePoint" />
            <mxPoint x="204" y="251" as="targetPoint" />
          </mxGeometry>
        </mxCell>
        <mxCell id="Is1JPiRmSpWM-kc08yyg-24" value="" style="shape=flexArrow;endArrow=classic;html=1;rounded=0;fillColor=#dae8fc;strokeColor=#6c8ebf;" edge="1" parent="Is1JPiRmSpWM-kc08yyg-43">
          <mxGeometry width="50" height="50" relative="1" as="geometry">
            <mxPoint x="135" y="330.5" as="sourcePoint" />
            <mxPoint x="205" y="330.5" as="targetPoint" />
          </mxGeometry>
        </mxCell>
        <mxCell id="Is1JPiRmSpWM-kc08yyg-25" value="" style="shape=flexArrow;endArrow=classic;html=1;rounded=0;fillColor=#dae8fc;strokeColor=#6c8ebf;" edge="1" parent="Is1JPiRmSpWM-kc08yyg-43">
          <mxGeometry width="50" height="50" relative="1" as="geometry">
            <mxPoint x="135" y="410.5" as="sourcePoint" />
            <mxPoint x="205" y="410.5" as="targetPoint" />
          </mxGeometry>
        </mxCell>
        <mxCell id="Is1JPiRmSpWM-kc08yyg-26" value="" style="shape=flexArrow;endArrow=classic;html=1;rounded=0;fillColor=#dae8fc;strokeColor=#6c8ebf;" edge="1" parent="Is1JPiRmSpWM-kc08yyg-43">
          <mxGeometry width="50" height="50" relative="1" as="geometry">
            <mxPoint x="495" y="250.5" as="sourcePoint" />
            <mxPoint x="564" y="251" as="targetPoint" />
          </mxGeometry>
        </mxCell>
        <mxCell id="Is1JPiRmSpWM-kc08yyg-27" value="" style="shape=flexArrow;endArrow=classic;html=1;rounded=0;fillColor=#dae8fc;strokeColor=#6c8ebf;" edge="1" parent="Is1JPiRmSpWM-kc08yyg-43">
          <mxGeometry width="50" height="50" relative="1" as="geometry">
            <mxPoint x="495" y="330.5" as="sourcePoint" />
            <mxPoint x="565" y="330.5" as="targetPoint" />
          </mxGeometry>
        </mxCell>
        <mxCell id="Is1JPiRmSpWM-kc08yyg-28" value="" style="shape=flexArrow;endArrow=classic;html=1;rounded=0;fillColor=#dae8fc;strokeColor=#6c8ebf;" edge="1" parent="Is1JPiRmSpWM-kc08yyg-43">
          <mxGeometry width="50" height="50" relative="1" as="geometry">
            <mxPoint x="495" y="410.5" as="sourcePoint" />
            <mxPoint x="565" y="410.5" as="targetPoint" />
          </mxGeometry>
        </mxCell>
        <mxCell id="Is1JPiRmSpWM-kc08yyg-29" value="" style="shape=flexArrow;endArrow=classic;startArrow=classic;html=1;rounded=0;strokeColor=#CC00CC;" edge="1" parent="Is1JPiRmSpWM-kc08yyg-43">
          <mxGeometry width="100" height="100" relative="1" as="geometry">
            <mxPoint x="339" y="213.51999999999998" as="sourcePoint" />
            <mxPoint x="339" y="135" as="targetPoint" />
          </mxGeometry>
        </mxCell>
        <mxCell id="Is1JPiRmSpWM-kc08yyg-30" value="Zookeeper" style="ellipse;whiteSpace=wrap;html=1;aspect=fixed;fontSize=20;fillColor=#CC00CC;fontColor=#FFFFCC;" vertex="1" parent="Is1JPiRmSpWM-kc08yyg-43">
          <mxGeometry x="168" y="6.869999999999891" width="114" height="114" as="geometry" />
        </mxCell>
        <mxCell id="Is1JPiRmSpWM-kc08yyg-39" value="Zookeeper" style="ellipse;whiteSpace=wrap;html=1;aspect=fixed;fontSize=20;fillColor=#CC00CC;fontColor=#FFFFCC;" vertex="1" parent="Is1JPiRmSpWM-kc08yyg-43">
          <mxGeometry x="289" y="6.869999999999891" width="114" height="114" as="geometry" />
        </mxCell>
        <mxCell id="Is1JPiRmSpWM-kc08yyg-42" value="Zookeeper" style="ellipse;whiteSpace=wrap;html=1;aspect=fixed;fontSize=20;fillColor=#CC00CC;fontColor=#FFFFCC;" vertex="1" parent="Is1JPiRmSpWM-kc08yyg-43">
          <mxGeometry x="410" y="6.869999999999891" width="114" height="114" as="geometry" />
        </mxCell>
        <mxCell id="Is1JPiRmSpWM-kc08yyg-145" value="US Cloud" style="text;html=1;strokeColor=none;fillColor=none;align=center;verticalAlign=middle;whiteSpace=wrap;rounded=0;fontSize=30;fontColor=#99004D;" vertex="1" parent="Is1JPiRmSpWM-kc08yyg-43">
          <mxGeometry x="233" y="-62" width="193" height="30" as="geometry" />
        </mxCell>
        <mxCell id="Is1JPiRmSpWM-kc08yyg-148" value="" style="rounded=0;whiteSpace=wrap;html=1;fillColor=#dae8fc;strokeColor=#6c8ebf;" vertex="1" parent="1">
          <mxGeometry x="2125" y="2555" width="761" height="529" as="geometry" />
        </mxCell>
        <mxCell id="Is1JPiRmSpWM-kc08yyg-149" value="" style="rounded=0;whiteSpace=wrap;html=1;fillColor=none;strokeWidth=4;dashed=1;" vertex="1" parent="1">
          <mxGeometry x="2310" y="2628" width="403" height="132" as="geometry" />
        </mxCell>
        <mxCell id="Is1JPiRmSpWM-kc08yyg-150" value="Producer" style="rounded=1;whiteSpace=wrap;html=1;fontSize=23;fillColor=#f8cecc;strokeColor=#b85450;" vertex="1" parent="1">
          <mxGeometry x="2165" y="2929" width="120" height="60" as="geometry" />
        </mxCell>
        <mxCell id="Is1JPiRmSpWM-kc08yyg-151" value="Consumer" style="rounded=1;whiteSpace=wrap;html=1;fontSize=23;fillColor=#fff2cc;strokeColor=#d6b656;" vertex="1" parent="1">
          <mxGeometry x="2739" y="2929" width="120" height="60" as="geometry" />
        </mxCell>
        <mxCell id="Is1JPiRmSpWM-kc08yyg-152" value="Broker" style="shape=hexagon;perimeter=hexagonPerimeter2;whiteSpace=wrap;html=1;fixedSize=1;fontSize=23;fillColor=#006633;strokeColor=#6c8ebf;fontColor=#FFFFFF;" vertex="1" parent="1">
          <mxGeometry x="2388.5" y="2882.5" width="120" height="80" as="geometry" />
        </mxCell>
        <mxCell id="Is1JPiRmSpWM-kc08yyg-153" value="Consumer" style="rounded=1;whiteSpace=wrap;html=1;fontSize=23;fillColor=#fff2cc;strokeColor=#d6b656;" vertex="1" parent="1">
          <mxGeometry x="2739" y="2849" width="120" height="60" as="geometry" />
        </mxCell>
        <mxCell id="Is1JPiRmSpWM-kc08yyg-154" value="Consumer" style="rounded=1;whiteSpace=wrap;html=1;fontSize=23;fillColor=#fff2cc;strokeColor=#d6b656;" vertex="1" parent="1">
          <mxGeometry x="2739" y="3009" width="120" height="60" as="geometry" />
        </mxCell>
        <mxCell id="Is1JPiRmSpWM-kc08yyg-155" value="Producer" style="rounded=1;whiteSpace=wrap;html=1;fontSize=23;fillColor=#f8cecc;strokeColor=#b85450;" vertex="1" parent="1">
          <mxGeometry x="2165" y="2849" width="120" height="60" as="geometry" />
        </mxCell>
        <mxCell id="Is1JPiRmSpWM-kc08yyg-156" value="Producer" style="rounded=1;whiteSpace=wrap;html=1;fontSize=23;fillColor=#f8cecc;strokeColor=#b85450;" vertex="1" parent="1">
          <mxGeometry x="2165" y="3009" width="120" height="60" as="geometry" />
        </mxCell>
        <mxCell id="Is1JPiRmSpWM-kc08yyg-157" value="Broker" style="shape=hexagon;perimeter=hexagonPerimeter2;whiteSpace=wrap;html=1;fixedSize=1;fontSize=23;fillColor=#006633;strokeColor=#6c8ebf;fontColor=#FFFFFF;" vertex="1" parent="1">
          <mxGeometry x="2388.5" y="2967.5" width="120" height="80" as="geometry" />
        </mxCell>
        <mxCell id="Is1JPiRmSpWM-kc08yyg-158" value="Broker" style="shape=hexagon;perimeter=hexagonPerimeter2;whiteSpace=wrap;html=1;fixedSize=1;fontSize=23;fillColor=#006633;strokeColor=#6c8ebf;fontColor=#FFFFFF;" vertex="1" parent="1">
          <mxGeometry x="2508.5" y="2882.5" width="120" height="80" as="geometry" />
        </mxCell>
        <mxCell id="Is1JPiRmSpWM-kc08yyg-159" value="Broker" style="shape=hexagon;perimeter=hexagonPerimeter2;whiteSpace=wrap;html=1;fixedSize=1;fontSize=23;fillColor=#006633;strokeColor=#6c8ebf;fontColor=#FFFFFF;" vertex="1" parent="1">
          <mxGeometry x="2508.5" y="2967.5" width="120" height="80" as="geometry" />
        </mxCell>
        <mxCell id="Is1JPiRmSpWM-kc08yyg-160" value="" style="rounded=0;whiteSpace=wrap;html=1;fillColor=none;strokeWidth=4;dashed=1;" vertex="1" parent="1">
          <mxGeometry x="2378.5" y="2855" width="261" height="208" as="geometry" />
        </mxCell>
        <mxCell id="Is1JPiRmSpWM-kc08yyg-161" value="" style="shape=flexArrow;endArrow=classic;html=1;rounded=0;fillColor=#dae8fc;strokeColor=#6c8ebf;" edge="1" parent="1">
          <mxGeometry width="50" height="50" relative="1" as="geometry">
            <mxPoint x="2300" y="2878.5" as="sourcePoint" />
            <mxPoint x="2369" y="2879" as="targetPoint" />
          </mxGeometry>
        </mxCell>
        <mxCell id="Is1JPiRmSpWM-kc08yyg-162" value="" style="shape=flexArrow;endArrow=classic;html=1;rounded=0;fillColor=#dae8fc;strokeColor=#6c8ebf;" edge="1" parent="1">
          <mxGeometry width="50" height="50" relative="1" as="geometry">
            <mxPoint x="2300" y="2958.5" as="sourcePoint" />
            <mxPoint x="2370" y="2958.5" as="targetPoint" />
          </mxGeometry>
        </mxCell>
        <mxCell id="Is1JPiRmSpWM-kc08yyg-163" value="" style="shape=flexArrow;endArrow=classic;html=1;rounded=0;fillColor=#dae8fc;strokeColor=#6c8ebf;" edge="1" parent="1">
          <mxGeometry width="50" height="50" relative="1" as="geometry">
            <mxPoint x="2300" y="3038.5" as="sourcePoint" />
            <mxPoint x="2370" y="3038.5" as="targetPoint" />
          </mxGeometry>
        </mxCell>
        <mxCell id="Is1JPiRmSpWM-kc08yyg-164" value="" style="shape=flexArrow;endArrow=classic;html=1;rounded=0;fillColor=#dae8fc;strokeColor=#6c8ebf;" edge="1" parent="1">
          <mxGeometry width="50" height="50" relative="1" as="geometry">
            <mxPoint x="2660" y="2878.5" as="sourcePoint" />
            <mxPoint x="2729" y="2879" as="targetPoint" />
          </mxGeometry>
        </mxCell>
        <mxCell id="Is1JPiRmSpWM-kc08yyg-165" value="" style="shape=flexArrow;endArrow=classic;html=1;rounded=0;fillColor=#dae8fc;strokeColor=#6c8ebf;" edge="1" parent="1">
          <mxGeometry width="50" height="50" relative="1" as="geometry">
            <mxPoint x="2660" y="2958.5" as="sourcePoint" />
            <mxPoint x="2730" y="2958.5" as="targetPoint" />
          </mxGeometry>
        </mxCell>
        <mxCell id="Is1JPiRmSpWM-kc08yyg-166" value="" style="shape=flexArrow;endArrow=classic;html=1;rounded=0;fillColor=#dae8fc;strokeColor=#6c8ebf;" edge="1" parent="1">
          <mxGeometry width="50" height="50" relative="1" as="geometry">
            <mxPoint x="2660" y="3038.5" as="sourcePoint" />
            <mxPoint x="2730" y="3038.5" as="targetPoint" />
          </mxGeometry>
        </mxCell>
        <mxCell id="Is1JPiRmSpWM-kc08yyg-167" value="" style="shape=flexArrow;endArrow=classic;startArrow=classic;html=1;rounded=0;strokeColor=#CC00CC;" edge="1" parent="1">
          <mxGeometry width="100" height="100" relative="1" as="geometry">
            <mxPoint x="2504" y="2841.52" as="sourcePoint" />
            <mxPoint x="2504" y="2763" as="targetPoint" />
          </mxGeometry>
        </mxCell>
        <mxCell id="Is1JPiRmSpWM-kc08yyg-168" value="Zookeeper" style="ellipse;whiteSpace=wrap;html=1;aspect=fixed;fontSize=20;fillColor=#CC00CC;fontColor=#FFFFCC;" vertex="1" parent="1">
          <mxGeometry x="2333" y="2634.87" width="114" height="114" as="geometry" />
        </mxCell>
        <mxCell id="Is1JPiRmSpWM-kc08yyg-169" value="Zookeeper" style="ellipse;whiteSpace=wrap;html=1;aspect=fixed;fontSize=20;fillColor=#CC00CC;fontColor=#FFFFCC;" vertex="1" parent="1">
          <mxGeometry x="2454" y="2634.87" width="114" height="114" as="geometry" />
        </mxCell>
        <mxCell id="Is1JPiRmSpWM-kc08yyg-170" value="Zookeeper" style="ellipse;whiteSpace=wrap;html=1;aspect=fixed;fontSize=20;fillColor=#CC00CC;fontColor=#FFFFCC;" vertex="1" parent="1">
          <mxGeometry x="2575" y="2634.87" width="114" height="114" as="geometry" />
        </mxCell>
        <mxCell id="Is1JPiRmSpWM-kc08yyg-171" value="Asia Cloud" style="text;html=1;strokeColor=none;fillColor=none;align=center;verticalAlign=middle;whiteSpace=wrap;rounded=0;fontSize=30;fontColor=#99004D;" vertex="1" parent="1">
          <mxGeometry x="2398" y="2566" width="193" height="30" as="geometry" />
        </mxCell>
        <mxCell id="Is1JPiRmSpWM-kc08yyg-172" value="" style="shape=flexArrow;endArrow=classic;startArrow=classic;html=1;rounded=0;strokeColor=#9673a6;entryX=0.001;entryY=0.514;entryDx=0;entryDy=0;entryPerimeter=0;fillColor=#e1d5e7;" edge="1" parent="1" target="Is1JPiRmSpWM-kc08yyg-148">
          <mxGeometry width="100" height="100" relative="1" as="geometry">
            <mxPoint x="2059" y="2825" as="sourcePoint" />
            <mxPoint x="2115" y="2825.91068852459" as="targetPoint" />
          </mxGeometry>
        </mxCell>
        <mxCell id="Is1JPiRmSpWM-kc08yyg-178" value="" style="group" vertex="1" connectable="0" parent="1">
          <mxGeometry x="1486" y="2816" width="81" height="50" as="geometry" />
        </mxCell>
        <mxCell id="Is1JPiRmSpWM-kc08yyg-174" value="Message" style="shape=document;whiteSpace=wrap;html=1;boundedLbl=1;fillColor=#d5e8d4;strokeColor=#82b366;" vertex="1" parent="Is1JPiRmSpWM-kc08yyg-178">
          <mxGeometry y="14.492753623188406" width="70.7766990291262" height="35.507246376811594" as="geometry" />
        </mxCell>
        <mxCell id="Is1JPiRmSpWM-kc08yyg-175" value="Message" style="shape=document;whiteSpace=wrap;html=1;boundedLbl=1;fillColor=#d5e8d4;strokeColor=#82b366;" vertex="1" parent="Is1JPiRmSpWM-kc08yyg-178">
          <mxGeometry x="4.718446601941747" y="7.246376811594203" width="70.7766990291262" height="35.507246376811594" as="geometry" />
        </mxCell>
        <mxCell id="Is1JPiRmSpWM-kc08yyg-176" value="Message" style="shape=document;whiteSpace=wrap;html=1;boundedLbl=1;fillColor=#d5e8d4;strokeColor=#82b366;" vertex="1" parent="Is1JPiRmSpWM-kc08yyg-178">
          <mxGeometry x="10.223300970873787" width="70.7766990291262" height="35.507246376811594" as="geometry" />
        </mxCell>
        <mxCell id="Is1JPiRmSpWM-kc08yyg-179" value="" style="group" vertex="1" connectable="0" parent="1">
          <mxGeometry x="2706" y="2807" width="81" height="50" as="geometry" />
        </mxCell>
        <mxCell id="Is1JPiRmSpWM-kc08yyg-180" value="Message" style="shape=document;whiteSpace=wrap;html=1;boundedLbl=1;fillColor=#d5e8d4;strokeColor=#82b366;" vertex="1" parent="Is1JPiRmSpWM-kc08yyg-179">
          <mxGeometry y="14.492753623188406" width="70.7766990291262" height="35.507246376811594" as="geometry" />
        </mxCell>
        <mxCell id="Is1JPiRmSpWM-kc08yyg-181" value="Message" style="shape=document;whiteSpace=wrap;html=1;boundedLbl=1;fillColor=#d5e8d4;strokeColor=#82b366;" vertex="1" parent="Is1JPiRmSpWM-kc08yyg-179">
          <mxGeometry x="4.718446601941747" y="7.246376811594203" width="70.7766990291262" height="35.507246376811594" as="geometry" />
        </mxCell>
        <mxCell id="Is1JPiRmSpWM-kc08yyg-182" value="Message" style="shape=document;whiteSpace=wrap;html=1;boundedLbl=1;fillColor=#d5e8d4;strokeColor=#82b366;" vertex="1" parent="Is1JPiRmSpWM-kc08yyg-179">
          <mxGeometry x="10.223300970873787" width="70.7766990291262" height="35.507246376811594" as="geometry" />
        </mxCell>
        <mxCell id="Is1JPiRmSpWM-kc08yyg-183" value="" style="group" vertex="1" connectable="0" parent="1">
          <mxGeometry x="2706" y="2908" width="81" height="50" as="geometry" />
        </mxCell>
        <mxCell id="Is1JPiRmSpWM-kc08yyg-184" value="Message" style="shape=document;whiteSpace=wrap;html=1;boundedLbl=1;fillColor=#d5e8d4;strokeColor=#82b366;" vertex="1" parent="Is1JPiRmSpWM-kc08yyg-183">
          <mxGeometry y="14.492753623188406" width="70.7766990291262" height="35.507246376811594" as="geometry" />
        </mxCell>
        <mxCell id="Is1JPiRmSpWM-kc08yyg-185" value="Message" style="shape=document;whiteSpace=wrap;html=1;boundedLbl=1;fillColor=#d5e8d4;strokeColor=#82b366;" vertex="1" parent="Is1JPiRmSpWM-kc08yyg-183">
          <mxGeometry x="4.718446601941747" y="7.246376811594203" width="70.7766990291262" height="35.507246376811594" as="geometry" />
        </mxCell>
        <mxCell id="Is1JPiRmSpWM-kc08yyg-186" value="Message" style="shape=document;whiteSpace=wrap;html=1;boundedLbl=1;fillColor=#d5e8d4;strokeColor=#82b366;" vertex="1" parent="Is1JPiRmSpWM-kc08yyg-183">
          <mxGeometry x="10.223300970873787" width="70.7766990291262" height="35.507246376811594" as="geometry" />
        </mxCell>
        <mxCell id="Is1JPiRmSpWM-kc08yyg-187" value="" style="group" vertex="1" connectable="0" parent="1">
          <mxGeometry x="2713" y="2990" width="81" height="50" as="geometry" />
        </mxCell>
        <mxCell id="Is1JPiRmSpWM-kc08yyg-188" value="Message" style="shape=document;whiteSpace=wrap;html=1;boundedLbl=1;fillColor=#d5e8d4;strokeColor=#82b366;" vertex="1" parent="Is1JPiRmSpWM-kc08yyg-187">
          <mxGeometry y="14.492753623188406" width="70.7766990291262" height="35.507246376811594" as="geometry" />
        </mxCell>
        <mxCell id="Is1JPiRmSpWM-kc08yyg-189" value="Message" style="shape=document;whiteSpace=wrap;html=1;boundedLbl=1;fillColor=#d5e8d4;strokeColor=#82b366;" vertex="1" parent="Is1JPiRmSpWM-kc08yyg-187">
          <mxGeometry x="4.718446601941747" y="7.246376811594203" width="70.7766990291262" height="35.507246376811594" as="geometry" />
        </mxCell>
        <mxCell id="Is1JPiRmSpWM-kc08yyg-190" value="Message" style="shape=document;whiteSpace=wrap;html=1;boundedLbl=1;fillColor=#d5e8d4;strokeColor=#82b366;" vertex="1" parent="Is1JPiRmSpWM-kc08yyg-187">
          <mxGeometry x="10.223300970873787" width="70.7766990291262" height="35.507246376811594" as="geometry" />
        </mxCell>
        <mxCell id="Is1JPiRmSpWM-kc08yyg-191" value="&lt;font color=&quot;#33001a&quot; style=&quot;font-size: 10px;&quot;&gt;&lt;span style=&quot;font-size: 10px;&quot;&gt;&lt;span style=&quot;font-size: 10px;&quot;&gt;&lt;i&gt;Messages are sent from US cluster&lt;/i&gt;&lt;/span&gt;&lt;/span&gt;&lt;/font&gt;" style="whiteSpace=wrap;html=1;rounded=1;arcSize=50;align=center;verticalAlign=middle;strokeWidth=1;autosize=1;spacing=4;treeFolding=1;treeMoving=1;newEdgeStyle={&quot;edgeStyle&quot;:&quot;entityRelationEdgeStyle&quot;,&quot;startArrow&quot;:&quot;none&quot;,&quot;endArrow&quot;:&quot;none&quot;,&quot;segment&quot;:10,&quot;curved&quot;:1,&quot;sourcePerimeterSpacing&quot;:0,&quot;targetPerimeterSpacing&quot;:0};fontSize=10;fillColor=#ffcd28;strokeColor=#d79b00;gradientColor=#ffa500;" vertex="1" parent="1">
          <mxGeometry x="1294" y="2772" width="166" height="28" as="geometry" />
        </mxCell>
        <mxCell id="Is1JPiRmSpWM-kc08yyg-192" value="" style="edgeStyle=entityRelationEdgeStyle;startArrow=none;endArrow=none;segment=10;curved=1;sourcePerimeterSpacing=0;targetPerimeterSpacing=0;rounded=0;strokeWidth=5;strokeColor=#FFB570;" edge="1" parent="1">
          <mxGeometry relative="1" as="geometry">
            <mxPoint x="1455" y="2798" as="sourcePoint" />
            <mxPoint x="1485" y="2853" as="targetPoint" />
            <Array as="points">
              <mxPoint x="1497" y="2832" />
            </Array>
          </mxGeometry>
        </mxCell>
        <mxCell id="Is1JPiRmSpWM-kc08yyg-193" value="&lt;font color=&quot;#33001a&quot; style=&quot;font-size: 10px;&quot;&gt;&lt;span style=&quot;font-size: 10px;&quot;&gt;&lt;span style=&quot;font-size: 10px;&quot;&gt;&lt;i&gt;Messages are read on Asia cluster&lt;/i&gt;&lt;/span&gt;&lt;/span&gt;&lt;/font&gt;" style="whiteSpace=wrap;html=1;rounded=1;arcSize=50;align=center;verticalAlign=middle;strokeWidth=1;autosize=1;spacing=4;treeFolding=1;treeMoving=1;newEdgeStyle={&quot;edgeStyle&quot;:&quot;entityRelationEdgeStyle&quot;,&quot;startArrow&quot;:&quot;none&quot;,&quot;endArrow&quot;:&quot;none&quot;,&quot;segment&quot;:10,&quot;curved&quot;:1,&quot;sourcePerimeterSpacing&quot;:0,&quot;targetPerimeterSpacing&quot;:0};fontSize=10;fillColor=#ffcd28;strokeColor=#d79b00;gradientColor=#ffa500;" vertex="1" parent="1">
          <mxGeometry x="2723" y="2729.87" width="161" height="28" as="geometry" />
        </mxCell>
        <mxCell id="Is1JPiRmSpWM-kc08yyg-194" value="" style="edgeStyle=entityRelationEdgeStyle;startArrow=none;endArrow=none;segment=10;curved=1;sourcePerimeterSpacing=0;targetPerimeterSpacing=0;rounded=0;strokeWidth=5;strokeColor=#FFB570;" edge="1" parent="1">
          <mxGeometry relative="1" as="geometry">
            <mxPoint x="2832" y="2759" as="sourcePoint" />
            <mxPoint x="2772" y="2805.57" as="targetPoint" />
            <Array as="points">
              <mxPoint x="2679" y="2839.57" />
              <mxPoint x="2681" y="2873.57" />
              <mxPoint x="2765" y="2822.57" />
            </Array>
          </mxGeometry>
        </mxCell>
        <mxCell id="Is1JPiRmSpWM-kc08yyg-195" value="&lt;font color=&quot;#33001a&quot; style=&quot;font-size: 10px;&quot;&gt;&lt;span style=&quot;font-size: 10px;&quot;&gt;&lt;span style=&quot;font-size: 10px;&quot;&gt;&lt;i&gt;Message / Data Synchronization between Kafka Cluster&lt;/i&gt;&lt;/span&gt;&lt;/span&gt;&lt;/font&gt;" style="whiteSpace=wrap;html=1;rounded=1;arcSize=50;align=center;verticalAlign=middle;strokeWidth=1;autosize=1;spacing=4;treeFolding=1;treeMoving=1;newEdgeStyle={&quot;edgeStyle&quot;:&quot;entityRelationEdgeStyle&quot;,&quot;startArrow&quot;:&quot;none&quot;,&quot;endArrow&quot;:&quot;none&quot;,&quot;segment&quot;:10,&quot;curved&quot;:1,&quot;sourcePerimeterSpacing&quot;:0,&quot;targetPerimeterSpacing&quot;:0};fontSize=10;fillColor=#ffcd28;strokeColor=#d79b00;gradientColor=#ffa500;" vertex="1" parent="1">
          <mxGeometry x="1959" y="2740.2999999999997" width="286" height="28" as="geometry" />
        </mxCell>
        <mxCell id="Is1JPiRmSpWM-kc08yyg-196" value="" style="edgeStyle=entityRelationEdgeStyle;startArrow=none;endArrow=none;segment=10;curved=1;sourcePerimeterSpacing=0;targetPerimeterSpacing=0;rounded=0;strokeWidth=5;strokeColor=#FFB570;" edge="1" parent="1">
          <mxGeometry relative="1" as="geometry">
            <mxPoint x="2130" y="2769.43" as="sourcePoint" />
            <mxPoint x="2070" y="2816" as="targetPoint" />
            <Array as="points">
              <mxPoint x="1977" y="2850" />
              <mxPoint x="1979" y="2884" />
              <mxPoint x="2063" y="2833" />
            </Array>
          </mxGeometry>
        </mxCell>
      </root>
    </mxGraphModel>
  </diagram>
</mxfile>
